<svg xmlns="http://www.w3.org/2000/svg" width="128" height="128" viewBox="0 0 128 128" role="img" aria-labelledby="nugget-title nugget-desc"><title id="nugget-title">Pepita Garimpa</title><desc id="nugget-desc">Pepita dourada facetada; fundo transparente.</desc><defs><clipPath id="single-clip"><path d="M31 34Q35 22 49 19L76 15Q89 13 99 29L111 51Q121 65 111 82L96 103Q85 115 66 112L37 105Q21 101 18 82L19 61Q19 45 31 34Z"/></clipPath></defs><path d="M31 34Q35 22 49 19L76 15Q89 13 99 29L111 51Q121 65 111 82L96 103Q85 115 66 112L37 105Q21 101 18 82L19 61Q19 45 31 34Z" fill="#F3B749"/><g clip-path="url(#single-clip)"><path d="m17 81 25-34 29 19-34 39-20-24Z" fill="#D9982F"/><path d="m31 34 40-7 28 2-29 37-28-19-11-13Z" fill="#FFE3A4"/><path d="m70 66 29-37 20 38-28 14-21-15Z" fill="#F6CB6A"/><path d="m37 105 33-39 21 15 5 22-30 9-29-7Z" fill="#E7AA38"/><path d="m31 34 11 13 29-20 28 2-23-14-27 4-18 15Z" fill="#FFF0C7"/><path d="m91 81 28-14-8 15-15 21-5-22Z" fill="#C98825"/><path d="m42 47 28 19 21 15M70 66l1-39M70 66l-33 39" fill="none" stroke="#FCE5A4" stroke-width="2" opacity=".65"/></g><path d="M31 34Q35 22 49 19L76 15Q89 13 99 29L111 51Q121 65 111 82L96 103Q85 115 66 112L37 105Q21 101 18 82L19 61Q19 45 31 34Z" fill="none" stroke="#103D32" stroke-width="2.5" stroke-linejoin="round"/><path d="M48 31 61 28" stroke="white" stroke-opacity=".9" stroke-width="4" stroke-linecap="round"/></svg>
