<svg xmlns="http://www.w3.org/2000/svg" width="144" height="194" viewBox="0 0 144 194" role="img" aria-labelledby="rank-legend-title rank-legend-desc"><title id="rank-legend-title">Lenda Local — 1800 XP</title><desc id="rank-legend-desc">Insígnia de nível com símbolo próprio, nome e limiar de experiência.</desc><path d="M41 104 33 137 61 127l15 14 8-31M103 104l8 33-28-10-15 14-8-31" fill="#187B56"/><circle cx="72" cy="67" r="56" fill="#103D32"/><circle cx="72" cy="67" r="45" fill="#F6F5EE" stroke="#103D32" stroke-width="2"/><path d="m45 52 15 10 12-23 12 23 15-10-5 34H50l-5-34Z" fill="#F3B749"/><path d="M53 94h38" stroke="#103D32" stroke-width="5" stroke-linecap="round"/><circle cx="72" cy="76" r="5" fill="#103D32"/><g transform="translate(53 49) scale(.3)"><defs><clipPath id="legend-clip"><path d="M31 34Q35 22 49 19L76 15Q89 13 99 29L111 51Q121 65 111 82L96 103Q85 115 66 112L37 105Q21 101 18 82L19 61Q19 45 31 34Z"/></clipPath></defs><path d="M31 34Q35 22 49 19L76 15Q89 13 99 29L111 51Q121 65 111 82L96 103Q85 115 66 112L37 105Q21 101 18 82L19 61Q19 45 31 34Z" fill="#F3B749"/><g clip-path="url(#legend-clip)"><path d="m17 81 25-34 29 19-34 39-20-24Z" fill="#D9982F"/><path d="m31 34 40-7 28 2-29 37-28-19-11-13Z" fill="#FFE3A4"/><path d="m70 66 29-37 20 38-28 14-21-15Z" fill="#F6CB6A"/><path d="m37 105 33-39 21 15 5 22-30 9-29-7Z" fill="#E7AA38"/><path d="m31 34 11 13 29-20 28 2-23-14-27 4-18 15Z" fill="#FFF0C7"/><path d="m91 81 28-14-8 15-15 21-5-22Z" fill="#C98825"/><path d="m42 47 28 19 21 15M70 66l1-39M70 66l-33 39" fill="none" stroke="#FCE5A4" stroke-width="2" opacity=".65"/></g><path d="M31 34Q35 22 49 19L76 15Q89 13 99 29L111 51Q121 65 111 82L96 103Q85 115 66 112L37 105Q21 101 18 82L19 61Q19 45 31 34Z" fill="none" stroke="#103D32" stroke-width="2.5" stroke-linejoin="round"/><path d="M48 31 61 28" stroke="white" stroke-opacity=".9" stroke-width="4" stroke-linecap="round"/></g><rect x="5" y="143" width="134" height="28" rx="14" fill="#103D32"/><path d="M188 1493H573V291H1249V0H188Z" transform="translate(31.1302 161.0000) scale(0.005029 -0.005029)" fill="#F6F5EE"/><path d="M188 1493H1227V1202H573V924H1188V633H573V291H1249V0H188Z" transform="translate(37.8935 161.0000) scale(0.005029 -0.005029)" fill="#F6F5EE"/><path d="M188 1493H618L1161 469V1493H1526V0H1096L553 1024V0H188Z" transform="translate(45.1295 161.0000) scale(0.005029 -0.005029)" fill="#F6F5EE"/><path d="M573 1202V291H711Q947 291 1071.5 408.0Q1196 525 1196 748Q1196 970 1072.0 1086.0Q948 1202 711 1202ZM188 1493H594Q934 1493 1100.5 1444.5Q1267 1396 1386 1280Q1491 1179 1542.0 1047.0Q1593 915 1593 748Q1593 579 1542.0 446.5Q1491 314 1386 213Q1266 97 1098.0 48.5Q930 0 594 0H188Z" transform="translate(53.9497 161.0000) scale(0.005029 -0.005029)" fill="#F6F5EE"/><path d="M1094 272H492L397 0H10L563 1493H1022L1575 0H1188ZM588 549H997L793 1143Z" transform="translate(62.6995 161.0000) scale(0.005029 -0.005029)" fill="#F6F5EE"/><path d="M188 1493H573V291H1249V0H188Z" transform="translate(74.6568 161.0000) scale(0.005029 -0.005029)" fill="#F6F5EE"/><path d="M870 1241Q694 1241 597.0 1111.0Q500 981 500 745Q500 510 597.0 380.0Q694 250 870 250Q1047 250 1144.0 380.0Q1241 510 1241 745Q1241 981 1144.0 1111.0Q1047 1241 870 1241ZM870 1520Q1230 1520 1434.0 1314.0Q1638 1108 1638 745Q1638 383 1434.0 177.0Q1230 -29 870 -29Q511 -29 306.5 177.0Q102 383 102 745Q102 1108 306.5 1314.0Q511 1520 870 1520Z" transform="translate(81.4200 161.0000) scale(0.005029 -0.005029)" fill="#F6F5EE"/><path d="M1372 82Q1266 27 1151.0 -1.0Q1036 -29 911 -29Q538 -29 320.0 179.5Q102 388 102 745Q102 1103 320.0 1311.5Q538 1520 911 1520Q1036 1520 1151.0 1492.0Q1266 1464 1372 1409V1100Q1265 1173 1161.0 1207.0Q1057 1241 942 1241Q736 1241 618.0 1109.0Q500 977 500 745Q500 514 618.0 382.0Q736 250 942 250Q1057 250 1161.0 284.0Q1265 318 1372 391Z" transform="translate(90.3760 161.0000) scale(0.005029 -0.005029)" fill="#F6F5EE"/><path d="M1094 272H492L397 0H10L563 1493H1022L1575 0H1188ZM588 549H997L793 1143Z" transform="translate(98.1351 161.0000) scale(0.005029 -0.005029)" fill="#F6F5EE"/><path d="M188 1493H573V291H1249V0H188Z" transform="translate(106.3065 161.0000) scale(0.005029 -0.005029)" fill="#F6F5EE"/><path d="M240 266H580V1231L231 1159V1421L578 1493H944V266H1284V0H240Z" transform="translate(44.4167 187.0000) scale(0.005371 -0.005371)" fill="#59776C"/><path d="M209 387H569V0H209Z" transform="translate(52.0706 187.0000) scale(0.005371 -0.005371)" fill="#59776C"/><path d="M713 668Q605 668 547.0 609.0Q489 550 489 440Q489 330 547.0 271.5Q605 213 713 213Q820 213 877.0 271.5Q934 330 934 440Q934 551 877.0 609.5Q820 668 713 668ZM432 795Q296 836 227.0 921.0Q158 1006 158 1133Q158 1322 299.0 1421.0Q440 1520 713 1520Q984 1520 1125.0 1421.5Q1266 1323 1266 1133Q1266 1006 1196.5 921.0Q1127 836 991 795Q1143 753 1220.5 658.5Q1298 564 1298 420Q1298 198 1150.5 84.5Q1003 -29 713 -29Q422 -29 273.5 84.5Q125 198 125 420Q125 564 202.5 658.5Q280 753 432 795ZM522 1094Q522 1005 571.5 957.0Q621 909 713 909Q803 909 852.0 957.0Q901 1005 901 1094Q901 1183 852.0 1230.5Q803 1278 713 1278Q621 1278 571.5 1230.0Q522 1182 522 1094Z" transform="translate(56.2493 187.0000) scale(0.005371 -0.005371)" fill="#59776C"/><path d="M942 748Q942 1028 889.5 1142.5Q837 1257 713 1257Q589 1257 536.0 1142.5Q483 1028 483 748Q483 465 536.0 349.0Q589 233 713 233Q836 233 889.0 349.0Q942 465 942 748ZM1327 745Q1327 374 1167.0 172.5Q1007 -29 713 -29Q418 -29 258.0 172.5Q98 374 98 745Q98 1117 258.0 1318.5Q418 1520 713 1520Q1007 1520 1167.0 1318.5Q1327 1117 1327 745Z" transform="translate(63.9031 187.0000) scale(0.005371 -0.005371)" fill="#59776C"/><path d="M942 748Q942 1028 889.5 1142.5Q837 1257 713 1257Q589 1257 536.0 1142.5Q483 1028 483 748Q483 465 536.0 349.0Q589 233 713 233Q836 233 889.0 349.0Q942 465 942 748ZM1327 745Q1327 374 1167.0 172.5Q1007 -29 713 -29Q418 -29 258.0 172.5Q98 374 98 745Q98 1117 258.0 1318.5Q418 1520 713 1520Q1007 1520 1167.0 1318.5Q1327 1117 1327 745Z" transform="translate(71.5569 187.0000) scale(0.005371 -0.005371)" fill="#59776C"/><path d="M1020 762 1538 0H1137L788 510L442 0H39L557 762L59 1493H461L788 1012L1114 1493H1518Z" transform="translate(83.0403 187.0000) scale(0.005371 -0.005371)" fill="#59776C"/><path d="M188 1493H827Q1112 1493 1264.5 1366.5Q1417 1240 1417 1006Q1417 771 1264.5 644.5Q1112 518 827 518H573V0H188ZM573 1214V797H786Q898 797 959.0 851.5Q1020 906 1020 1006Q1020 1106 959.0 1160.0Q898 1214 786 1214Z" transform="translate(91.5212 187.0000) scale(0.005371 -0.005371)" fill="#59776C"/></svg>
